<svg xmlns="http://www.w3.org/2000/svg" xmlns:xlink="http://www.w3.org/1999/xlink" width="677.423" height="538.553" viewBox="0 0 677.423 538.553">
  <defs>
    <linearGradient id="linear-gradient" x1="0.5" y1="1" x2="0.5" gradientUnits="objectBoundingBox">
      <stop offset="0" stop-color="gray" stop-opacity="0.251"/>
      <stop offset="0.54" stop-color="gray" stop-opacity="0.122"/>
      <stop offset="1" stop-color="gray" stop-opacity="0.102"/>
    </linearGradient>
  </defs>
  <g id="Group_2" data-name="Group 2" transform="translate(0 -0.007)">
    <path id="Path_1" data-name="Path 1" d="M490.358,143.219c-42.864-1.49-83.694-15.326-122.677-30.466S290.086,80.837,248.249,72.817c-26.909-5.159-57.686-5.888-79.363,8.537-20.869,13.908-27.611,37.85-31.234,60.09-2.729,16.73-4.331,34.333,3.146,50,5.186,10.875,14.4,20.015,20.763,30.466,22.167,36.241,6.5,80.932-17.518,116.319-11.259,16.6-24.339,32.452-33.029,50.109S98.3,426.251,105.9,444.278c7.544,17.882,25.512,31.287,44.97,40.724,39.532,19.173,86.1,24.657,131.538,27.763,100.556,6.881,201.642,3.9,302.463.921,37.314-1.106,74.786-2.225,111.491-7.994,20.385-3.206,41.427-8.285,56.229-20.564,18.783-15.584,23.439-41.976,10.855-61.514-21.12-32.777-79.475-40.917-94.258-76.1-8.12-19.359.225-40.923,12.027-58.885,25.326-38.519,67.773-72.316,70.011-116.345,1.536-30.247-18.875-60.527-50.427-74.839C667.733,82.394,621.863,84.3,597.477,109.131,572.35,134.715,528.2,144.53,490.358,143.219Z" transform="translate(-93.073 -52.204)" fill="#0e75bb" opacity="0.2"/>
    <path id="Path_2" data-name="Path 2" d="M308.375,591.748l-226.69-1.106L59.16,537.811l79.648-5.782L124.926,474.1l157.533-20.419L131.608,401.246l13.325-3.166L387.5,437.652l-13.358,90.4-19.094,49.679Z" transform="translate(-19.979 -134.431)" fill="#6c63ff"/>
    <path id="Path_3" data-name="Path 3" d="M187,698.73s13.908-2.225,22.253,7.6c0,0-6.12,4.821-19.286-1.854Z" transform="translate(-121.817 -264.646)" fill="#6c63ff"/>
    <path id="Path_4" data-name="Path 4" d="M181.886,698.51s-8.875,10.921-4.5,23.081c0,0,7.232-2.894,8.02-17.637Z" transform="translate(-118.16 -264.645)" fill="#6c63ff"/>
    <path id="Path_5" data-name="Path 5" d="M172.76,669.6s5.563-10.206,27.816,4.08c0,0-2.967,6.861-12.8,6.305S175.356,674.977,172.76,669.6Z" transform="translate(-117.008 -253.689)" fill="#6c63ff"/>
    <path id="Path_6" data-name="Path 6" d="M164.133,670.284s-11.544-1.325-12.663,25.1c0,0,7.318,1.517,12.517-6.841S167.054,675.5,164.133,670.284Z" transform="translate(-109.818 -255.109)" fill="#6c63ff"/>
    <path id="Path_7" data-name="Path 7" d="M160.44,633.469s6.491-17.988,30.042-5.192c0,0-5.378,16.5-27.631,11.312Z" transform="translate(-112.848 -239.375)" fill="#0e75bb"/>
    <path id="Path_8" data-name="Path 8" d="M149.52,593.534s12.239-18.173,33.936-1.325c0,0-7.6,17.061-32.082,7.789Z" transform="translate(-109.16 -226.329)" fill="#0e75bb"/>
    <path id="Path_9" data-name="Path 9" d="M145.6,555.436s14.279-16.7,35.764,0c0,0-13.537,14.65-35.764,4.265Z" transform="translate(-107.836 -213.822)" fill="#0e75bb"/>
    <path id="Path_10" data-name="Path 10" d="M142.24,517.6s14.465-17.432,35.049-.927c0,0-16.319,15.392-35.049,5.007Z" transform="translate(-106.701 -200.837)" fill="#0e75bb"/>
    <path id="Path_11" data-name="Path 11" d="M144.2,481.987s15.233-22.439,34.492-7.232c0,0-16.319,19.286-34.492,11.5Z" transform="translate(-107.363 -187.296)" fill="#0e75bb"/>
    <path id="Path_12" data-name="Path 12" d="M149.52,443.52s16.133-22.253,34.863-5.192c0,0-19.1,19.286-34.863,9.272Z" transform="translate(-109.16 -174.606)" fill="#0e75bb"/>
    <path id="Path_13" data-name="Path 13" d="M157.214,407.244s19.1-20.915,35.764-12.584c0,0-19.9,22.213-36.6,18.134Z" transform="translate(-111.476 -161.371)" fill="#0e75bb"/>
    <path id="Path_14" data-name="Path 14" d="M166.923,372.089s22.041-25.618,34.863-17.061c0,0-16.239,19.869-36.426,21.856Z" transform="translate(-114.509 -148.058)" fill="#0e75bb"/>
    <path id="Path_15" data-name="Path 15" d="M180.95,334.991s19.293-20.915,33.386-15.723c0,0-16.5,21.7-35.976,22.253Z" transform="translate(-118.899 -136.293)" fill="#0e75bb"/>
    <path id="Path_16" data-name="Path 16" d="M194.967,299.022s21.326-20.028,30.6-16.5c0,0-15.392,22.253-31.525,20.955Z" transform="translate(-124.194 -124.022)" fill="#0e75bb"/>
    <path id="Path_17" data-name="Path 17" d="M208.32,263.3s18.359-23.929,28.379-22.074c0,0-11.133,21.333-28.379,24.5Z" transform="translate(-129.017 -110.184)" fill="#0e75bb"/>
    <path id="Path_18" data-name="Path 18" d="M221.959,220.729s16.226-18.339,25-18.3c0,0-12.809,24.5-25.664,24.28Z" transform="translate(-133.397 -97.116)" fill="#0e75bb"/>
    <path id="Path_19" data-name="Path 19" d="M229.564,180.921l15.676-38.2s.782,34.532-17.67,45.288Z" transform="translate(-135.518 -76.952)" fill="#0e75bb"/>
    <path id="Path_20" data-name="Path 20" d="M240.136,119.2s2.6-31.9.927-34.5c0,0,11.206,26.525-1.033,48.593Z" transform="translate(-139.725 -57.358)" fill="#0e75bb"/>
    <path id="Path_21" data-name="Path 21" d="M145.867,636.781s-16.253-10.074-26.777,14.57c0,0,14.465,9.6,28.691-8.285Z" transform="translate(-98.883 -243.11)" fill="#0e75bb"/>
    <path id="Path_22" data-name="Path 22" d="M133.635,595.515s-19.935-9.093-29.6,16.637c0,0,15.4,10.6,31.419-10.133Z" transform="translate(-93.798 -229.336)" fill="#0e75bb"/>
    <path id="Path_23" data-name="Path 23" d="M125.964,557.746s-14.279-16.7-35.764,0c0,0,13.537,14.65,35.764,4.265Z" transform="translate(-89.127 -214.602)" fill="#0e75bb"/>
    <path id="Path_24" data-name="Path 24" d="M123.629,517.6s-14.465-17.432-35.049-.927c0,0,16.319,15.392,35.049,5.007Z" transform="translate(-88.58 -200.837)" fill="#0e75bb"/>
    <path id="Path_25" data-name="Path 25" d="M127.781,480.649s-10.146-25.134-32.2-14.325c0,0,11.921,22.286,31.3,18.5Z" transform="translate(-90.944 -185.322)" fill="#0e75bb"/>
    <path id="Path_26" data-name="Path 26" d="M134.9,440.667S124.816,415.1,102.45,426.951c0,0,13.7,23.439,31.459,17.663Z" transform="translate(-93.264 -171.879)" fill="#0e75bb"/>
    <path id="Path_27" data-name="Path 27" d="M149.408,399.275s-3.974-28.035-22.518-30.545c0,0,3.934,29.565,20.021,35.6Z" transform="translate(-101.517 -153.276)" fill="#0e75bb"/>
    <path id="Path_28" data-name="Path 28" d="M159.822,363.936s-1.55-33.777-16.882-34.956c0,0,.517,25.637,15.153,39.738Z" transform="translate(-106.938 -139.853)" fill="#0e75bb"/>
    <path id="Path_29" data-name="Path 29" d="M174.877,325.929s-4.57-28.088-19.207-31.519c0,0,1.815,27.2,17.756,38.413Z" transform="translate(-111.237 -128.178)" fill="#0e75bb"/>
    <path id="Path_30" data-name="Path 30" d="M192.774,290.888s-.152-29.26-9.093-33.558c0,0-5.543,26.492,6.5,37.294Z" transform="translate(-120.266 -115.656)" fill="#0e75bb"/>
    <path id="Path_31" data-name="Path 31" d="M203.8,256.583s-1.252-30.128-10.511-34.373c0,0-3.166,23.843,9.126,36.347Z" transform="translate(-123.819 -103.796)" fill="#0e75bb"/>
    <path id="Path_32" data-name="Path 32" d="M219.752,218.264s-.053-24.5-6.663-30.254c0,0-6.57,26.843,3.212,35.181Z" transform="translate(-129.898 -92.246)" fill="#0e75bb"/>
    <path id="Path_33" data-name="Path 33" d="M224.878,177.784,218.447,137s-8.736,33.419,6.736,48.149Z" transform="translate(-131.607 -75.02)" fill="#0e75bb"/>
    <path id="Path_34" data-name="Path 34" d="M223.054,121.836s-16.5-27.419-16.167-30.466c0,0,1.755,28.737,22.518,43.049Z" transform="translate(-128.531 -59.61)" fill="#0e75bb"/>
    <path id="Path_35" data-name="Path 35" d="M222.684,103.675s-15.577-38.943-22.624-42.1c0,0,22.253,11.312,23.922,40.983Z" transform="translate(-126.227 -49.55)" fill="#0e75bb"/>
    <path id="Path_36" data-name="Path 36" d="M220.626,199.571l-1.066-.325c13.147-42.87,16.425-70.2,9.239-77.058l.762-.808C237.184,128.612,234.091,155.647,220.626,199.571Z" transform="translate(-132.813 -69.745)" fill="#444053"/>
    <path id="Path_37" data-name="Path 37" d="M165.706,338.22l-1.576-.563c1.4-3.927,2.9-7.914,4.477-11.842,13.723-34.2,25.406-66.018,32.9-90.443l1.371-.662c-7.5,24.472-18.981,57.507-32.717,91.754C168.587,330.319,167.09,334.286,165.706,338.22Z" transform="translate(-114.094 -108.017)" fill="#444053"/>
    <path id="Path_38" data-name="Path 38" d="M190.673,625.065c-.212-.232-21.518-24.227-36.373-65.19a241.194,241.194,0,0,1-14.352-74.694c-1.02-31.876,5.669-67.468,17.127-99.8l1.245,1.457c-25.724,72.568-15.5,134.75-1.947,172.2,14.7,40.592,35.764,64.322,35.969,64.56Z" transform="translate(-105.893 -158.899)" fill="#444053"/>
    <path id="Path_39" data-name="Path 39" d="M648.041,670.36s-15.014,18.326-3.093,46.029L525.072,768.38l-11.5,2.411-5.3-23.18,3.543-29.254V702.369Z" transform="translate(-230.312 -255.138)" fill="#d5d6db"/>
    <path id="Path_40" data-name="Path 40" d="M59.16,593.637,225.078,563.39l219.849,35.022L308.375,647.574Z" transform="translate(-19.979 -190.257)" fill="#6c63ff"/>
    <path id="Path_41" data-name="Path 41" d="M59.16,593.637,225.078,563.39l219.849,35.022L308.375,647.574Z" transform="translate(-19.979 -190.257)" fill="#6c63ff"/>
    <path id="Path_42" data-name="Path 42" d="M144.555,652.47s-15.518,29.4,2.364,56.553l246.042,53.315s-15.273-23.419.788-55.924Z" transform="translate(-105.374 -249.097)" fill="#6c63ff"/>
    <path id="Path_43" data-name="Path 43" d="M144.555,652.47s-15.518,29.4,2.364,56.553l246.042,53.315s-15.273-23.419.788-55.924Z" transform="translate(-105.374 -249.097)" opacity="0.1"/>
    <path id="Path_44" data-name="Path 44" d="M156.8,667.86s-8.868,21.511,0,35.433" transform="translate(-110.287 -254.294)" opacity="0.1"/>
    <path id="Path_45" data-name="Path 45" d="M397.353,788.473l137.36-58.613s7.683,1.656,2.715,7.285S400,794.1,400,794.1L151.31,735.158Z" transform="translate(-109.764 -275.232)" fill="#6c63ff"/>
    <path id="Path_46" data-name="Path 46" d="M397.353,788.473l137.36-58.613s7.683,1.656,2.715,7.285S400,794.1,400,794.1L151.31,735.158Z" transform="translate(-109.764 -275.232)" opacity="0.1"/>
    <path id="Path_47" data-name="Path 47" d="M502.808,742.86s-13.246,15.9,0,39.738" transform="translate(-226.479 -279.622)" opacity="0.1"/>
    <rect id="Rectangle_1" data-name="Rectangle 1" width="62.633" height="0.662" transform="translate(281.045 482.79) rotate(-18.45)" opacity="0.1"/>
    <rect id="Rectangle_2" data-name="Rectangle 2" width="76.316" height="0.662" transform="translate(281.023 488.122) rotate(-20.82)" opacity="0.1"/>
    <rect id="Rectangle_3" data-name="Rectangle 3" width="88.456" height="0.662" transform="translate(281.421 494.408) rotate(-22.26)" opacity="0.1"/>
    <rect id="Rectangle_4" data-name="Rectangle 4" width="101.821" height="0.662" transform="translate(282.376 499.95) rotate(-24.31)" opacity="0.1"/>
    <rect id="Rectangle_5" data-name="Rectangle 5" width="111.365" height="0.662" transform="matrix(0.916, -0.401, 0.401, 0.916, 283.112, 502.647)" opacity="0.1"/>
    <rect id="Rectangle_6" data-name="Rectangle 6" width="133.267" height="0.662" transform="translate(284.653 507.177) rotate(-23.36)" opacity="0.1"/>
    <path id="Path_48" data-name="Path 48" d="M152.23,601.445l116.564-24.5,71.011,13.577-95.516,30.8Z" transform="translate(-51.409 -194.833)" fill="#fff" opacity="0.3"/>
    <path id="Path_49" data-name="Path 49" d="M660.572,659.69s6.027,2.431,2.49,6.186S524,708.852,524,708.852Z" transform="translate(-235.624 -251.535)" fill="#6c63ff"/>
    <path id="Path_50" data-name="Path 50" d="M747.334,574.18s-15.008,18.319-3.086,46.03L624.372,672.2l-11.5,2.424-5.3-23.18,3.6-29.247V606.189Z" transform="translate(-263.846 -222.658)" fill="#d5d6db"/>
    <path id="Path_51" data-name="Path 51" d="M158.46,497.45l165.911-30.24,219.855,35.022L407.675,551.394Z" transform="translate(-53.513 -157.777)" fill="#3a3768"/>
    <path id="Path_52" data-name="Path 52" d="M243.813,556.29s-15.524,29.4,2.358,56.553l246.043,53.315s-15.266-23.439.815-55.931Z" transform="translate(-138.892 -216.616)" fill="#3a3768"/>
    <path id="Path_53" data-name="Path 53" d="M243.813,556.29s-15.524,29.4,2.358,56.553l246.043,53.315s-15.266-23.439.815-55.931l-77.806-16.842Z" transform="translate(-138.892 -216.616)" opacity="0.1"/>
    <path id="Path_54" data-name="Path 54" d="M256.092,571.68s-8.862,21.5,0,35.433" transform="translate(-143.82 -221.814)" opacity="0.1"/>
    <path id="Path_55" data-name="Path 55" d="M496.643,692.293,634.009,633.68s7.676,1.656,2.709,7.285-137.426,56.957-137.426,56.957L250.6,638.978Z" transform="translate(-143.295 -242.751)" fill="#3a3768"/>
    <path id="Path_56" data-name="Path 56" d="M496.643,692.293,634.009,633.68s7.676,1.656,2.709,7.285-137.426,56.957-137.426,56.957L250.6,638.978Z" transform="translate(-143.295 -242.751)" opacity="0.1"/>
    <path id="Path_57" data-name="Path 57" d="M602.1,646.68s-13.246,15.9,0,39.738" transform="translate(-260.01 -247.142)" opacity="0.1"/>
    <rect id="Rectangle_7" data-name="Rectangle 7" width="62.633" height="0.662" transform="translate(346.809 419.097) rotate(-18.45)" opacity="0.1"/>
    <rect id="Rectangle_8" data-name="Rectangle 8" width="76.316" height="0.662" transform="translate(346.795 424.427) rotate(-20.82)" opacity="0.1"/>
    <rect id="Rectangle_9" data-name="Rectangle 9" width="88.456" height="0.662" transform="translate(347.184 430.703) rotate(-22.26)" opacity="0.1"/>
    <rect id="Rectangle_10" data-name="Rectangle 10" width="101.821" height="0.662" transform="translate(348.147 436.247) rotate(-24.31)" opacity="0.1"/>
    <rect id="Rectangle_11" data-name="Rectangle 11" width="111.365" height="0.662" transform="matrix(0.916, -0.401, 0.401, 0.916, 348.873, 438.935)" opacity="0.1"/>
    <rect id="Rectangle_12" data-name="Rectangle 12" width="133.267" height="0.662" transform="translate(350.419 443.465) rotate(-23.36)" opacity="0.1"/>
    <path id="Path_58" data-name="Path 58" d="M251.53,505.265l116.564-24.5,71.011,13.577-95.516,30.8Z" transform="translate(-84.943 -162.353)" fill="#fff" opacity="0.45"/>
    <path id="Path_59" data-name="Path 59" d="M759.882,563.51s6.02,2.431,2.49,6.179S623.33,612.666,623.33,612.666Z" transform="translate(-269.168 -219.055)" fill="#3a3768"/>
    <path id="Path_60" data-name="Path 60" d="M756.744,464.15s-15.014,32.9-3.093,60.6L633.776,562.17,622.3,564.6,617,541.42l3.543-29.254V496.159Z" transform="translate(-267.03 -185.5)" fill="#d5d6db"/>
    <path id="Path_61" data-name="Path 61" d="M167.89,387.427,333.808,357.18,553.663,392.2,417.1,441.364Z" transform="translate(-56.697 -120.619)" fill="#6c63ff"/>
    <path id="Path_62" data-name="Path 62" d="M253.276,446.26s-15.544,29.4,2.338,56.553l246.043,53.315s-15.273-23.439.808-55.924Z" transform="translate(-142.083 -179.459)" fill="#6c63ff"/>
    <path id="Path_63" data-name="Path 63" d="M253.276,446.26s-15.544,29.4,2.338,56.553l246.043,53.315s-15.273-23.439.808-55.924Z" transform="translate(-142.083 -179.459)" opacity="0.1"/>
    <path id="Path_64" data-name="Path 64" d="M265.53,461.65s-8.868,21.511,0,35.433" transform="translate(-147.006 -184.656)" opacity="0.1"/>
    <path id="Path_65" data-name="Path 65" d="M506.083,584.965l137.36-44.043s7.683,1.656,2.715,7.285-137.426,42.387-137.426,42.387L260.04,531.65Z" transform="translate(-146.483 -208.295)" fill="#6c63ff"/>
    <path id="Path_66" data-name="Path 66" d="M506.083,584.965l137.36-44.043s7.683,1.656,2.715,7.285-137.426,42.387-137.426,42.387L260.04,531.65Z" transform="translate(-146.483 -208.295)" opacity="0.1"/>
    <path id="Path_67" data-name="Path 67" d="M611.538,536.65s-13.246,15.9,0,39.738" transform="translate(-263.198 -209.984)" opacity="0.1"/>
    <rect id="Rectangle_13" data-name="Rectangle 13" width="62.633" height="0.662" transform="translate(353.063 346.224) rotate(-18.45)" opacity="0.1"/>
    <rect id="Rectangle_14" data-name="Rectangle 14" width="76.316" height="0.662" transform="translate(353.045 351.557) rotate(-20.82)" opacity="0.1"/>
    <rect id="Rectangle_15" data-name="Rectangle 15" width="88.456" height="0.662" transform="translate(353.427 357.836) rotate(-22.26)" opacity="0.1"/>
    <rect id="Rectangle_16" data-name="Rectangle 16" width="101.821" height="0.662" transform="translate(354.4 363.374) rotate(-24.31)" opacity="0.1"/>
    <rect id="Rectangle_17" data-name="Rectangle 17" width="111.365" height="0.662" transform="matrix(0.916, -0.401, 0.401, 0.916, 355.129, 366.069)" opacity="0.1"/>
    <rect id="Rectangle_18" data-name="Rectangle 18" width="133.267" height="0.662" transform="translate(356.672 370.602) rotate(-23.36)" opacity="0.1"/>
    <path id="Path_68" data-name="Path 68" d="M260.96,395.235l116.564-24.5,71.011,13.577-95.516,30.8Z" transform="translate(-88.128 -125.195)" fill="#fff" opacity="0.3"/>
    <path id="Path_69" data-name="Path 69" d="M769.312,453.48s6.027,2.431,2.49,6.186S632.76,502.642,632.76,502.642Z" transform="translate(-272.352 -181.897)" fill="#6c63ff"/>
    <path id="Path_70" data-name="Path 70" d="M387.545,149.9s-25.167-1.517-22.227,16.14a4.307,4.307,0,0,0,2.239,4.537s.046-1.325,2.583-.868a11.292,11.292,0,0,0,2.742.132,5.709,5.709,0,0,0,3.345-1.378h0s7.08-2.927,9.835-14.5c0,0,2.04-2.523,1.987-3.172l-4.265,1.815s1.45,3.066.311,5.616c0,0-.139-5.5-.96-5.378-.166,0-2.205,1.066-2.205,1.066s2.5,5.345.609,9.226c0,0,.715-6.583-1.391-8.842l-2.994,1.748s2.921,5.517.94,10.021c0,0,.51-6.908-1.57-9.6l-2.715,2.119s2.749,5.437,1.073,9.173c0,0-.219-8.04-1.656-8.65a16.367,16.367,0,0,0-2.735,2.954s1.881,3.974.709,6.033c0,0-.709-5.358-1.325-5.384,0,0-2.364,3.55-2.609,5.961a12.889,12.889,0,0,1,2.033-6.318,7.093,7.093,0,0,0-3.616,1.874s.364-2.51,4.206-2.729c0,0,1.954-2.7,2.477-2.854,0,0-3.821-.325-6.133.7,0,0,2.04-2.364,6.828-1.325l2.649-2.186s-5.02-.662-7.153.073c0,0,2.457-2.093,7.875-.57l2.921-1.742a26.54,26.54,0,0,0-6.835-.589s2.689-1.45,7.689.119l2.08-.934s-3.133-.616-4.053-.715-.967-.351-.967-.351a10.935,10.935,0,0,1,5.894.662S387.631,150.182,387.545,149.9Z" transform="translate(-181.955 -79.366)" fill="#0e75bb"/>
    <path id="Path_71" data-name="Path 71" d="M922.145,259.483s-25.167-1.517-22.227,16.14a4.307,4.307,0,0,0,2.239,4.537s.046-1.325,2.583-.868a11.671,11.671,0,0,0,2.742.132,5.689,5.689,0,0,0,3.311-1.378h0s7.087-2.927,9.835-14.5c0,0,2.04-2.523,1.987-3.172l-4.252,1.815s1.45,3.066.311,5.616c0,0-.139-5.5-.954-5.378-.166,0-2.212,1.066-2.212,1.066s2.5,5.345.616,9.226c0,0,.715-6.583-1.4-8.842l-2.994,1.749s2.921,5.517.94,10.021c0,0,.51-6.908-1.57-9.6l-2.709,2.119s2.742,5.437,1.066,9.173c0,0-.219-8.04-1.656-8.65a16.61,16.61,0,0,0-2.735,2.954s1.881,3.974.715,6.034c0,0-.715-5.358-1.325-5.384,0,0-2.364,3.55-2.609,5.961a12.847,12.847,0,0,1,2.04-6.318,7.126,7.126,0,0,0-3.623,1.874s.371-2.51,4.206-2.729c0,0,1.954-2.7,2.477-2.861,0,0-3.815-.318-6.133.709,0,0,2.04-2.364,6.828-1.325l2.649-2.186s-5.027-.662-7.153.073c0,0,2.451-2.093,7.875-.57l2.914-1.742a26.539,26.539,0,0,0-6.835-.589s2.689-1.45,7.689.119l2.086-.934s-3.139-.616-4.06-.715-.967-.351-.967-.351a10.855,10.855,0,0,1,5.894.662S922.224,259.762,922.145,259.483Z" transform="translate(-362.492 -116.372)" fill="#0e75bb" opacity="0.1"/>
    <path id="Path_72" data-name="Path 72" d="M448.824,307.158s-10.968-22.737-24.929-11.531a4.3,4.3,0,0,0-2.868,4.166s1.159-.6,1.987,1.835a11.737,11.737,0,0,0,1.219,2.451,5.716,5.716,0,0,0,2.841,2.252h0s6.007,4.755,17.458,1.51c0,0,3.2.55,3.722.166l-3.656-2.828s-1.987,2.762-4.755,3.007c0,0,4.742-2.8,4.232-3.451-.106-.132-1.987-1.411-1.987-1.411s-3.451,4.788-7.755,5.033c0,0,6.093-2.583,7.034-5.53l-2.98-1.762s-3.4,5.245-8.292,5.709c0,0,6.279-2.921,7.61-6.047l-3.166-1.325s-3.411,5.047-7.491,5.411c0,0,6.914-4.113,6.742-5.669a16.786,16.786,0,0,0-3.914-.947s-2.53,3.57-4.914,3.57c0,0,4.325-3.239,4.06-3.762,0,0-4.252-.331-6.49.662a12.894,12.894,0,0,1,6.51-1.325,7.133,7.133,0,0,0-3.4-2.245s2.371-.9,4.431,2.338c0,0,3.311.391,3.7.768,0,0-1.583-3.484-3.6-5,0,0,3.06.616,4.457,5.3l3.212,1.272s-1.848-4.716-3.55-6.206c0,0,3.02,1.119,4.338,6.623l2.941,1.7a26.206,26.206,0,0,0-2.815-6.252s2.576,1.643,3.643,6.769l1.835,1.364s-.993-3.04-1.325-3.888-.166-1.02-.166-1.02a10.868,10.868,0,0,1,2.3,5.464S448.585,307.356,448.824,307.158Z" transform="translate(-200.848 -127.541)" fill="#0e75bb" opacity="0.1"/>
    <path id="Path_73" data-name="Path 73" d="M832.6,203.538s-10.961-22.737-24.929-11.531a4.31,4.31,0,0,0-2.868,4.166s1.166-.6,1.987,1.835a11.481,11.481,0,0,0,1.225,2.457,5.683,5.683,0,0,0,2.835,2.245h0s6.014,4.755,17.458,1.517c0,0,3.2.543,3.729.159l-3.636-2.835s-1.987,2.768-4.749,3.013c0,0,4.735-2.808,4.225-3.457-.106-.132-1.987-1.411-1.987-1.411s-3.444,4.788-7.755,5.033c0,0,6.1-2.583,7.04-5.524l-3.027-1.748s-3.391,5.239-8.292,5.709c0,0,6.279-2.927,7.616-6.053l-3.172-1.325s-3.411,5.053-7.484,5.411c0,0,6.908-4.113,6.735-5.663a16.383,16.383,0,0,0-3.908-.947s-2.53,3.563-4.921,3.563c0,0,4.331-3.239,4.066-3.762,0,0-4.252-.331-6.5.662a12.888,12.888,0,0,1,6.51-1.325,7.093,7.093,0,0,0-3.4-2.245s2.371-.9,4.431,2.338c0,0,3.311.4,3.7.775,0,0-1.583-3.49-3.61-5.007,0,0,3.06.623,4.457,5.331l3.219,1.272s-1.848-4.722-3.55-6.212c0,0,3.02,1.119,4.331,6.623l2.947,1.7a26.452,26.452,0,0,0-2.821-6.252s2.583,1.642,3.643,6.769l1.835,1.364s-.987-3.04-1.325-3.888-.166-1.013-.166-1.013a10.9,10.9,0,0,1,2.3,5.464S832.4,203.75,832.6,203.538Z" transform="translate(-330.452 -92.548)" fill="#0e75bb" opacity="0.1"/>
    <path id="Path_74" data-name="Path 74" d="M885.484,373.345s-10.961-22.743-24.949-11.537a4.31,4.31,0,0,0-2.868,4.166s1.166-.6,1.987,1.835a11.478,11.478,0,0,0,1.219,2.457,5.682,5.682,0,0,0,2.835,2.245h0s6.014,4.762,17.465,1.517c0,0,3.192.55,3.722.159l-3.656-2.828s-1.987,2.768-4.755,3.013c0,0,4.735-2.808,4.225-3.457-.106-.132-1.987-1.411-1.987-1.411s-3.444,4.788-7.755,5.04c0,0,6.1-2.59,7.04-5.53l-2.987-1.762s-3.391,5.245-8.292,5.709c0,0,6.278-2.927,7.616-6.053l-3.172-1.325s-3.411,5.047-7.484,5.411c0,0,6.914-4.113,6.742-5.669a16.453,16.453,0,0,0-3.914-.947s-2.53,3.563-4.921,3.563c0,0,4.331-3.239,4.067-3.762,0,0-4.252-.331-6.5.662a12.928,12.928,0,0,1,6.517-1.325,7.081,7.081,0,0,0-3.4-2.245s2.371-.907,4.431,2.338c0,0,3.312.391,3.7.768,0,0-1.583-3.484-3.6-5.007,0,0,3.06.623,4.457,5.331l3.212,1.272s-1.848-4.722-3.55-6.206c0,0,3.02,1.113,4.331,6.623l2.947,1.689a26.452,26.452,0,0,0-2.821-6.252s2.583,1.643,3.649,6.775l1.834,1.325s-.993-3.04-1.325-3.888-.166-1.013-.166-1.013a10.829,10.829,0,0,1,2.3,5.464S885.279,373.543,885.484,373.345Z" transform="translate(-348.303 -149.89)" fill="#0e75bb" opacity="0.1"/>
    <ellipse id="Ellipse_1" data-name="Ellipse 1" cx="15.226" cy="1.702" rx="15.226" ry="1.702" transform="translate(118.524 515.943)" fill="#6c63ff" opacity="0.1"/>
    <ellipse id="Ellipse_2" data-name="Ellipse 2" cx="15.226" cy="1.702" rx="15.226" ry="1.702" transform="translate(18.71 487.014)" fill="#6c63ff" opacity="0.1"/>
    <ellipse id="Ellipse_3" data-name="Ellipse 3" cx="15.226" cy="1.702" rx="15.226" ry="1.702" transform="translate(194.609 535.157)" fill="#6c63ff" opacity="0.1"/>
    <ellipse id="Ellipse_4" data-name="Ellipse 4" cx="15.226" cy="1.702" rx="15.226" ry="1.702" transform="translate(584.502 493.306)" fill="#6c63ff" opacity="0.1"/>
    <ellipse id="Ellipse_5" data-name="Ellipse 5" cx="15.226" cy="1.702" rx="15.226" ry="1.702" transform="translate(457.798 485.047)" fill="#6c63ff" opacity="0.1"/>
    <ellipse id="Ellipse_6" data-name="Ellipse 6" cx="18.008" cy="3.093" rx="18.008" ry="3.093" transform="translate(373.051 522.547)" fill="#6c63ff" opacity="0.1"/>
    <path id="Path_75" data-name="Path 75" d="M683.1,790.14s-25.074,12.954-12.12,28.214a4.846,4.846,0,0,0,4.742,3.08s-.7-1.285,1.987-2.311a12.92,12.92,0,0,0,2.709-1.437,6.364,6.364,0,0,0,2.424-3.239h0s5.126-6.861,1.152-19.558c0,0,.517-3.59.066-4.172l-3.047,4.179s3.146,2.113,3.51,5.219c0,0-3.311-5.212-3.974-4.636-.146.119-1.51,2.285-1.51,2.285s5.457,3.7,5.861,8.51c0,0-3.073-6.736-6.391-7.7l-1.9,3.391s5.961,3.629,6.623,9.087c0,0-3.464-6.921-7-8.318l-1.4,3.583s5.749,3.656,6.279,8.2c0,0-4.808-7.6-6.537-7.358,0,0-1.086,3.365-.94,4.4,0,0,4.06,2.715,4.133,5.384,0,0-3.749-4.735-4.325-4.424,0,0-.238,4.762.914,7.239a14.29,14.29,0,0,1-1.662-7.239,7.947,7.947,0,0,0-2.4,3.868s-1.08-2.616,2.477-5.027c0,0,.338-3.7.748-4.159,0,0-3.848,1.881-5.484,4.186,0,0,.6-3.437,5.822-5.146l1.325-3.629s-5.219,2.212-6.828,4.159c0,0,1.159-3.411,7.239-5.047l1.8-3.311s-4.636,1.563-6.9,3.311c0,0,1.755-2.934,7.457-4.285l1.464-2.086s-3.364,1.2-4.3,1.629-1.126.219-1.126.219a12.18,12.18,0,0,1,6.033-2.742S683.327,790.365,683.1,790.14Z" transform="translate(-284.003 -295.589)" fill="#0e75bb"/>
    <path id="Path_76" data-name="Path 76" d="M689,293.3c-4.331-11.769-28.174-12.875-38.519-9.875-7.351,2.139-22.849,4.55-31.128,5.762l-.536-.51c1.073-.318,1.1-1.1.967-2.258a35.337,35.337,0,0,1,.066-4.583c5.073,1.576,9.59-2.152,9.59-2.152h0c5.961-2.649,4.358-13.988,5.5-17.087.854-2.318,1.775-15.975,2.186-22.783h.086l.046-2.285c.06-.987.086-1.563.086-1.563s.583-16.65,1.722-20.021c1.06-3.1,1.921-18.716,2.053-21.193v-.325l-.086-1.444c.06-1.053.086-2.225.079-3.457,0-5.663-.589-12.8-.662-13.948v-.6c.046-2.417-.258-14.524-10.557-19.1-3.795-1.7-8.358-3.715-12.776-5.682-1.139-9.835-3.742-19.617-3.517-29.525,0-1.49.133-2.98.278-4.464,0,.43-.046.868-.053,1.325v2.888c.391-12.392,5.073-24.849,4.636-36.976-.04,1.186-.126,2.378-.238,3.57a38.5,38.5,0,0,0-1.272-12.18,7.207,7.207,0,0,0-2.08-3.775,8.563,8.563,0,0,0-3.629-1.437,72.992,72.992,0,0,0-9.53-1.775,14.716,14.716,0,0,0-2.146-4.166c-6.716-9.219-16.663-17.882-28.426-19.869-5.9-.993-12.69-.166-16.7,4.053a12.516,12.516,0,0,0-1.179,1.192c-2.159,2.576-3.086,5.961-5.3,8.53-.146.172-.311.331-.47.5-4.331,3.874-11.08,4.682-15.9,8.159a19.087,19.087,0,0,0-2.378,2.073,40.321,40.321,0,0,0-5.192,6.312c-2.166,3.047-4.391,6.219-5.08,9.855-1.384,7.285,3.576,14.193,4.5,21.525,2.053,16.405-16.1,30.962-12.663,47.149a21.591,21.591,0,0,0,5.841,10.484c-7.08,6.411-13.107,12.63-13.107,12.63v.371h-1.119l.113,1.325h-.113l.616,7.186-.616,10.464v.987h.04c.205,3.835,1.02,17.624,1.987,20.531,1.139,3.371,1.715,20.021,1.715,20.021s1.258,23.531,2.411,26.644-.483,14.418,5.5,17.087h0a12.583,12.583,0,0,0,6.007,2.49c-.3,2.477-.113,4.272.874,4.835a2.888,2.888,0,0,0,1.391.4,14.75,14.75,0,0,0-1.079,1.887,28.053,28.053,0,0,1-6.941-1.636c-6.424-2.649-27.744-8.61-33.936-4.418s-21.094,7.994-14.213,24.869,10.087,17.3,10.087,17.3a24.505,24.505,0,0,1,5.5,5.53c2.066,3.106,21.319,10.213,26.134,10.213a47.147,47.147,0,0,1,6.126.3s-5.226,4.583-4.53,7.246-1.59,23.975-1.59,23.975,5.3,5.338,7.563-1.662l.079.106c.424.576,2.715,3.179,7.027-.106a39.4,39.4,0,0,1,5.6-3.55l20.876-2.954a59.082,59.082,0,0,1,6.537-.046c3.311.272,6.563-1.689,8.61-3.206,4.325,1.643,9.186,3.437,11.5,4.093,4.689,1.325,26.24,7.106,31.28,5.3a7,7,0,0,0,2.715-1.934l4.808.152-2.252.45s4.384.073,10.345.152l-.252.146,7.477-.066c10.941.1,23.233.132,24.849-.232,2.53-.563,15.676-.166,19.551,0h1.08s14.445-2.881,8.484-17.538c-4.583-11.259-18.67-14.531-24.922-15.431,1.762-.351,3.278-.623,4.285-.781,4.365-.662,12.842-4.636,13.531-5.994s7.8-5.3,9.63-7.544S693.351,305.069,689,293.3ZM569.356,326.236l-.709.232-.477.159-.914.9c-.729-.49-1.51-1.007-2.325-1.537C566.369,326.077,567.846,326.163,569.356,326.236ZM632.48,344.9Z" transform="translate(-215.485 -43.42)" fill="url(#linear-gradient)"/>
    <path id="Path_77" data-name="Path 77" d="M686.65,323.351s10.133,26.492,15.9,23.843,4.2-13.908,5.3-16.994,2.318-26.492,2.318-26.492.556-16.557,1.656-19.909c1.02-3.08,1.848-18.61,1.987-21.054v-.325l-1.093-19.207-6.186-1.543-14.345,5.3-1.987,11.345-.775,4.431-.331,1.888Z" transform="translate(-290.551 -110.368)" fill="#be6f72"/>
    <path id="Path_78" data-name="Path 78" d="M691.69,358.3s9.669,7.914,12.584,8.61,4.7,6.868,4.7,6.868" transform="translate(-292.253 -149.754)" opacity="0.1"/>
    <path id="Path_79" data-name="Path 79" d="M553.154,325.1s-10.133,26.492-15.9,23.843-4.2-13.908-5.3-16.994-2.318-26.492-2.318-26.492-.556-16.557-1.656-19.909c-1.02-3.08-1.848-18.61-1.987-21.054v-.325l1.1-19.207,6.186-1.543,14.345,5.3,1.987,11.345.775,4.431.331,1.888Z" transform="translate(-236.299 -110.959)" fill="#be6f72"/>
    <rect id="Rectangle_19" data-name="Rectangle 19" width="22.617" height="35.254" transform="translate(360.222 72.371)" fill="#3e373a"/>
    <rect id="Rectangle_20" data-name="Rectangle 20" width="22.617" height="35.254" transform="translate(360.222 72.371)" opacity="0.1"/>
    <path id="Path_80" data-name="Path 80" d="M558.2,405.515s-7.729,8.5-4.861,10.04,21.419,30.466,21.419,30.466,60.931,7.5,72.422-3.755,11.259-31.373,11.259-31.373-9.232,1.987-10.239.907-6.537-6.285-6.537-6.285S563.494,400.773,558.2,405.515Z" transform="translate(-245.315 -164.987)" fill="#4b4b5b"/>
    <path id="Path_81" data-name="Path 81" d="M558.2,405.515s-7.729,8.5-4.861,10.04,21.419,30.466,21.419,30.466,60.931,7.5,72.422-3.755,11.259-31.373,11.259-31.373-9.232,1.987-10.239.907-6.537-6.285-6.537-6.285S563.494,400.773,558.2,405.515Z" transform="translate(-245.315 -164.987)" opacity="0.02"/>
    <path id="Path_82" data-name="Path 82" d="M659.43,213.338l-19.869,15.9-6.007.437-2.205.159-37.042,2.715-38.413-2.808-5.716-.417-7.285-.53-15.233-14.57a260.847,260.847,0,0,1,20.227-19.346c3.722-3.08,7.239-5.57,9.8-6.55l.437-.152a10.9,10.9,0,0,0,4.2-2.927c7.458-7.689,14.352-26.664,14.352-26.664s32.9-16.994,28.922,5.3,14.789,16.783,14.789,16.783l6.186,2.821,2.444,1.119,6.232,2.854,14.06,6.451C660.344,198.986,659.43,213.338,659.43,213.338Z" transform="translate(-236.86 -80.214)" fill="#be6f72"/>
    <circle id="Ellipse_7" data-name="Ellipse 7" cx="29.585" cy="29.585" r="29.585" transform="translate(326.319 37.349)" opacity="0.1"/>
    <path id="Path_83" data-name="Path 83" d="M658.916,252.641H526v-.325l1.1-19.207a260.85,260.85,0,0,1,20.227-19.346l83.449-3.311,3.881-4.093,14.06,6.451c11.041,5.073,10.153,19.425,10.153,19.425S660.38,248.866,658.916,252.641Z" transform="translate(-236.299 -98.443)" opacity="0.1"/>
    <path id="Path_84" data-name="Path 84" d="M658.916,251.641H526v-.325l1.1-19.207a260.853,260.853,0,0,1,20.227-19.346l83.449-3.311,3.881-4.093,14.06,6.451c11.041,5.073,10.153,19.425,10.153,19.425S660.38,247.866,658.916,251.641Z" transform="translate(-236.299 -98.105)" fill="#e7c7ca"/>
    <path id="Path_85" data-name="Path 85" d="M589.569,190.969s20.968,26.717,48.9-.55,3.093,60.819,3.093,60.819l-60.269,7.153Z" transform="translate(-254.971 -91.291)" opacity="0.1"/>
    <path id="Path_86" data-name="Path 86" d="M589.569,192.969s20.968,26.717,48.9-.55,3.093,60.819,3.093,60.819l-60.269,7.153Z" transform="translate(-254.971 -91.967)" fill="#e7c7ca"/>
    <path id="Path_87" data-name="Path 87" d="M637.048,202.443l2.219,33.837,2.378,11.259,1.815,8.61s4.636,66.23,3.312,69.541.662,5.961.94,7.722-.278,6.186-.06,8.173,0,2.868-5.073,2.159-12.146-1.941-12.146-1.941-17.882,1.325-24.061-.881-17.882-2.212-17.882-2.212-17.663.444-23.4-.219-8.835,7.067-12.584,4.855,4.411-23.617,7.06-29.8-3.53-21.856-3.53-21.856l7.948-44.089,1.768-9.994V206.185l.437-.152a10.9,10.9,0,0,0,4.2-2.927l1.987,31.618,62.256,2.212V201.35" transform="translate(-244.923 -96.751)" opacity="0.1"/>
    <path id="Path_88" data-name="Path 88" d="M637.048,200.443l2.219,33.837,2.378,11.259,1.815,8.61s4.636,66.229,3.312,69.541.662,5.961.94,7.722-.278,6.186-.06,8.173,0,2.868-5.073,2.159-12.146-1.94-12.146-1.94-17.882,1.325-24.061-.881-17.882-2.212-17.882-2.212-17.663.444-23.4-.219-8.835,7.067-12.584,4.855,4.411-23.617,7.06-29.8-3.53-21.856-3.53-21.856l7.948-44.089,1.768-9.994V204.185l.437-.152a10.9,10.9,0,0,0,4.2-2.927l1.987,31.618,62.256,2.212V199.35" transform="translate(-244.923 -96.076)" fill="#e7c7ca"/>
    <path id="Path_89" data-name="Path 89" d="M639.484,78.467a7.3,7.3,0,0,0-1.987-3.749,8.133,8.133,0,0,0-3.5-1.431,69.094,69.094,0,0,0-9.193-1.762,14.715,14.715,0,0,0-1.987-4.126c-6.491-9.166-16.094-17.809-27.393-19.763-5.914-1.027-12.769-.106-16.557,4.557-2.08,2.563-2.974,5.961-5.073,8.477-4.047,4.888-11.352,5.49-16.451,9.272-2.722,1.987-4.7,4.868-6.623,7.663-2.086,3.027-4.232,6.179-4.894,9.8-1.325,7.226,3.451,14.114,4.331,21.405,1.987,16.312-15.5,30.783-12.193,46.877,1.927,9.385,10.6,15.994,19.564,19.346,3.159,1.186,6.769,2.364,8.246,5.4.662,1.325.775,2.854,1.4,4.192,2.093,4.464,8.974,4.636,12.67,1.384s4.861-8.51,5.3-13.418c1.775-21.432-6.808-42.605-5.808-64.09.3-6.5,2.126-13.868,7.948-16.809,7.835-3.974,17.26,2.649,25.883,1.384a51.348,51.348,0,0,1,2.477,31.333c-1.371,5.716-3.742,11.259-3.914,17.153-.258,8.974,4.583,17.173,8.769,25.108a13.361,13.361,0,0,1,1.768,4.841,11.671,11.671,0,0,1-.947,5.067c-2.364,6.365-6.444,12.272-6.908,19.048a3.079,3.079,0,0,0,.5,2.265,2.848,2.848,0,0,0,1.709.768c7.153,1.225,13.339-5.113,16.829-11.478a53.8,53.8,0,0,0,6.636-22.862c.722-13.484-4.113-26.75-3.815-40.248C636.609,108.721,643.544,93.269,639.484,78.467Z" transform="translate(-240.2 -44.714)" opacity="0.1"/>
    <path id="Path_90" data-name="Path 90" d="M640.484,77.467a7.3,7.3,0,0,0-1.987-3.749,8.133,8.133,0,0,0-3.5-1.431,69.09,69.09,0,0,0-9.193-1.762,14.715,14.715,0,0,0-1.987-4.126c-6.49-9.166-16.094-17.809-27.393-19.763-5.914-1.027-12.769-.106-16.557,4.557-2.08,2.563-2.974,5.961-5.073,8.477-4.047,4.888-11.352,5.49-16.451,9.272-2.722,1.987-4.7,4.868-6.623,7.663-2.086,3.027-4.232,6.179-4.894,9.8-1.325,7.226,3.451,14.114,4.331,21.405,1.987,16.312-15.5,30.783-12.193,46.877,1.927,9.385,10.6,15.994,19.564,19.346,3.159,1.186,6.769,2.364,8.246,5.4.662,1.325.775,2.854,1.4,4.192,2.093,4.464,8.974,4.636,12.67,1.384s4.861-8.51,5.3-13.418c1.775-21.432-6.808-42.605-5.808-64.09.3-6.5,2.126-13.868,7.948-16.809,7.835-3.974,17.259,2.649,25.883,1.384a51.347,51.347,0,0,1,2.477,31.333c-1.371,5.716-3.742,11.259-3.914,17.153-.258,8.974,4.583,17.173,8.769,25.108a13.359,13.359,0,0,1,1.768,4.841,11.67,11.67,0,0,1-.947,5.067c-2.365,6.365-6.444,12.272-6.908,19.048a3.08,3.08,0,0,0,.5,2.265,2.848,2.848,0,0,0,1.709.768c7.153,1.225,13.339-5.113,16.829-11.478a53.806,53.806,0,0,0,6.636-22.862c.722-13.484-4.113-26.75-3.815-40.248C637.61,107.721,644.544,92.269,640.484,77.467Z" transform="translate(-240.537 -44.376)" fill="#3e373a"/>
    <path id="Path_91" data-name="Path 91" d="M581.79,483.224l26.273.841-3.768-19.485-20.127,1.914Z" transform="translate(-196.474 -156.889)" fill="#c3c7d9"/>
    <path id="Path_92" data-name="Path 92" d="M731.041,445.487c-1.768,2.205-8.61,6.179-9.272,7.5s-8.828,5.3-13.027,5.961-17.438,3.537-19.869,5.08c-1.742,1.113-15.723,4.636-24.909,6.59a70.7,70.7,0,0,1-7.544,1.358c-3.974.219-47.46-14.57-47.46-14.57l8.385-8.61.464-.159c2.371-.8,13.325-4.5,19.405-6.265,6.848-1.987,14.8-10.153,14.8-10.153s11.7-3.974,13.246-4.417-3.974-15.451-3.974-15.451,25.386-3.523,35.32-6.51,32.9-1.881,37.089,9.822S732.836,443.282,731.041,445.487Z" transform="translate(-264.315 -165.334)" fill="#4b4b5b"/>
    <path id="Path_93" data-name="Path 93" d="M590.03,510.819s-5.073,5.3-10.153,4.861S557.034,517,557.034,517a35.613,35.613,0,0,0-8.948,5.186c-4.153,3.272-6.358.662-6.769.106l-.073-.106c-2.212,6.961-7.285,1.656-7.285,1.656s2.206-21.193,1.53-23.843,4.365-7.2,4.365-7.2l5.961-1.517,15.1-3.868,21.637,7.5Z" transform="translate(-238.987 -193.359)" fill="#e7c7ca"/>
    <path id="Path_94" data-name="Path 94" d="M545.789,493.26l-4.47,31.009-.073-.106c-2.212,6.961-7.285,1.656-7.285,1.656s2.206-21.193,1.53-23.843,4.365-7.2,4.365-7.2Z" transform="translate(-238.987 -195.331)" opacity="0.1"/>
    <path id="Path_95" data-name="Path 95" d="M599,360.08s11.7,3.974,21.856,0" transform="translate(-260.952 -150.355)" opacity="0.1"/>
    <path id="Path_96" data-name="Path 96" d="M659.29,371.42s4.855,2.424,8.61,0" transform="translate(-281.312 -154.185)" opacity="0.1"/>
    <path id="Path_97" data-name="Path 97" d="M659.29,379.533s8.166,1.093,9.716-1.113" transform="translate(-281.312 -156.549)" opacity="0.1"/>
    <path id="Path_98" data-name="Path 98" d="M655.29,396.386s15.339-1.987,19.147-4.636" transform="translate(-279.961 -161.05)" opacity="0.1"/>
    <path id="Path_99" data-name="Path 99" d="M584.62,391.75s8.61,4.855,15.014,4.636" transform="translate(-256.095 -161.05)" opacity="0.1"/>
    <path id="Path_100" data-name="Path 100" d="M663.954,493.162a70.7,70.7,0,0,1-7.544,1.358c-3.974.219-47.46-14.57-47.46-14.57l8.385-8.61.464-.159c1.325.934,2.411,1.735,3.186,2.345,3.649,2.874,7.173-.881,8.5-.881s12.8,9.491,12.8,9.491,10.6,2.431,12.365,4.636,7.948,1.768,9.047,3.311A5.909,5.909,0,0,1,663.954,493.162Z" transform="translate(-264.312 -187.874)" opacity="0.1"/>
    <path id="Path_101" data-name="Path 101" d="M535.674,413.753s-10.716.616-16.9-1.987-26.71-8.61-32.671-4.391-20.313,7.948-13.69,24.73,9.716,17.22,9.716,17.22a23.91,23.91,0,0,1,5.3,5.5c1.987,3.093,20.531,10.153,25.167,10.153s12.8,0,24.28,7.947,21.856,8.835,21.856,8.835,14.57,5.961,19.107,7.285,25.267,7.06,30.128,5.3,7.948-12.809,7.948-12.809,2.205-9.934,1.1-11.478-7.285-1.106-9.047-3.311-12.365-4.636-12.365-4.636-11.451-9.5-12.776-9.5-4.848,3.749-8.5.881a193.852,193.852,0,0,0-22.856-14.57C543.092,434.5,535.674,413.753,535.674,413.753Z" transform="translate(-217.627 -165.834)" fill="#4b4b5b"/>
    <path id="Path_102" data-name="Path 102" d="M536.27,427.289a12.65,12.65,0,0,1,10.855,2.868c5.3,4.418,23.127,13.286,23.127,13.286" transform="translate(-239.767 -172.966)" opacity="0.1"/>
    <path id="Path_103" data-name="Path 103" d="M721.995,427s-23.624,3.576-28.035,8.431" transform="translate(-293.02 -172.954)" opacity="0.1"/>
    <path id="Path_104" data-name="Path 104" d="M746.333,520.535h-1.04c-3.735-.132-16.392-.53-18.829,0-2.868.662-40.844,0-40.844,0l7.424-1.543s-2.755-9.656-1.007-10.458c0,0-9.934-6.543-2.444-10.961a23.237,23.237,0,0,1,15.564-2.556l18.8-6.371,3.61-1.225s21.193,1.106,26.929,15.677S746.333,520.535,746.333,520.535Z" transform="translate(-290.204 -193.359)" fill="#e7c7ca"/>
    <path id="Path_105" data-name="Path 105" d="M765.882,520.552h-1.04c6.166-5.086,20.114-20.571-21.333-31.856l3.609-1.225s21.193,1.106,26.929,15.677S765.882,520.552,765.882,520.552Z" transform="translate(-309.753 -193.375)" opacity="0.1"/>
    <circle id="Ellipse_8" data-name="Ellipse 8" cx="1.159" cy="1.159" r="1.159" transform="translate(416.007 307.691)" fill="#4b4b5b"/>
    <circle id="Ellipse_9" data-name="Ellipse 9" cx="1.159" cy="1.159" r="1.159" transform="translate(409.272 309.605)" fill="#4b4b5b"/>
    <g id="Group_1" data-name="Group 1" transform="translate(298.193 41.654)" opacity="0.1">
      <path id="Path_106" data-name="Path 106" d="M639.513,130.616a51.387,51.387,0,0,0-3.8-21.286c-8.61,1.285-18.041-5.358-25.882-1.384-5.8,2.941-7.623,10.312-7.948,16.809-.079,1.715-.093,3.431-.06,5.146,0-.609,0-1.225.06-1.835.3-6.5,2.126-13.868,7.948-16.809,7.842-3.974,17.259,2.649,25.882,1.384a51.25,51.25,0,0,1,3.8,17.975Z" transform="translate(-560.092 -106.429)"/>
      <path id="Path_107" data-name="Path 107" d="M555.637,130.082a22.083,22.083,0,0,0-.086-4.331c-.7-5.828-3.888-11.4-4.464-17.081-.742,6.855,3.623,13.438,4.464,20.392A4.138,4.138,0,0,1,555.637,130.082Z" transform="translate(-542.936 -107.107)"/>
      <path id="Path_108" data-name="Path 108" d="M586.42,220.808c-.411,4.914-1.57,10.166-5.3,13.425s-10.6,3.08-12.67-1.384c-.662-1.325-.762-2.868-1.4-4.192-1.47-3.033-5.086-4.212-8.246-5.4-8.974-3.358-17.63-9.934-19.557-19.346a20.325,20.325,0,0,1-.351-2.583,20.872,20.872,0,0,0,.351,5.894c1.927,9.385,10.6,15.988,19.557,19.346,3.159,1.186,6.775,2.364,8.246,5.4.662,1.325.775,2.855,1.4,4.192,2.086,4.464,8.967,4.636,12.67,1.384s4.855-8.51,5.3-13.425a75.665,75.665,0,0,0,.205-7.775C586.625,217.848,586.539,219.331,586.42,220.808Z" transform="translate(-538.823 -138.399)"/>
      <path id="Path_109" data-name="Path 109" d="M687.93,140.206v2.868c.371-12.319,4.888-24.7,4.444-36.764C692.03,117.463,688.182,128.868,687.93,140.206Z" transform="translate(-589.177 -106.31)"/>
      <path id="Path_110" data-name="Path 110" d="M661.173,217.4a8.538,8.538,0,0,0,.152-2.391,13.244,13.244,0,0,0-1.768-4.841c-3.828-7.285-8.193-14.743-8.709-22.829,0,.344-.046.662-.053,1.033-.265,8.967,4.576,17.173,8.762,25.108a15.894,15.894,0,0,1,1.616,3.921Z" transform="translate(-576.633 -133.674)"/>
      <path id="Path_111" data-name="Path 111" d="M680.541,217.585a53.892,53.892,0,0,1-6.683,22.862c-3.5,6.365-9.676,12.7-16.836,11.478a2.815,2.815,0,0,1-1.709-.775,1.656,1.656,0,0,1-.311-.517c-.079.517-.146,1.04-.185,1.57a3.053,3.053,0,0,0,.5,2.258,2.814,2.814,0,0,0,1.709.775c7.159,1.225,13.339-5.113,16.836-11.478a53.892,53.892,0,0,0,6.683-22.862c.079-1.55.086-3.093.04-4.636C680.567,216.7,680.567,217.141,680.541,217.585Z" transform="translate(-577.98 -143.441)"/>
    </g>
    <path id="Path_112" data-name="Path 112" d="M695.31,514.95s16.763,7.034,27.816-8.53" transform="translate(-293.476 -199.775)" fill="none" stroke="#000" stroke-width="1" opacity="0.1"/>
    <path id="Path_113" data-name="Path 113" d="M700.29,535.8s13.69-8.9,31.128-.291" transform="translate(-295.158 -208.33)" fill="none" stroke="#000" stroke-width="1" opacity="0.1"/>
    <path id="Path_114" data-name="Path 114" d="M561.93,531.344s5.749-12.968,21.1-3.08" transform="translate(-248.433 -205.897)" fill="none" stroke="#000" stroke-width="1" opacity="0.1"/>
    <path id="Path_115" data-name="Path 115" d="M533.79,238.643l11.723-10.6s45.453-2.98,47.334,12.471c0,0,16.114-18.319,50-14.239L657.189,237.7l-39.632,17.392-38.513,13.358-28.366-12.7Z" transform="translate(-238.93 -104.969)" opacity="0.1"/>
    <path id="Path_116" data-name="Path 116" d="M533.79,239.643l11.723-10.6s45.453-2.98,47.334,12.471c0,0,16.114-18.319,50-14.239L657.189,238.7l-39.632,17.392-38.513,13.359-28.366-12.7Z" transform="translate(-238.93 -105.307)" fill="#d5d6db"/>
    <path id="Path_117" data-name="Path 117" d="M437.38,204.83l5.186,62.037,54.97,2.762-2.384-61.772-.046-1.04Z" transform="translate(-147.706 -69.17)" opacity="0.1"/>
    <path id="Path_118" data-name="Path 118" d="M437.38,202.83l5.186,62.037,54.97,2.762-2.384-61.772-.046-1.04Z" transform="translate(-147.706 -68.494)" fill="#6c63ff"/>
    <path id="Path_119" data-name="Path 119" d="M606.416,202.83l-56.706,8.5v62.315l55.414-8.007Z" transform="translate(-185.64 -68.494)" opacity="0.1"/>
    <path id="Path_120" data-name="Path 120" d="M606.416,200.83l-56.706,8.5v62.315l55.414-8.007Z" transform="translate(-185.64 -67.819)" fill="#6c63ff"/>
    <path id="Path_121" data-name="Path 121" d="M599.521,223.79l-30.631,3.4.669,10.438L599.5,234.36Z" transform="translate(-192.117 -75.573)" fill="#fff" opacity="0.3"/>
    <path id="Path_122" data-name="Path 122" d="M537.611,361.908l3.119,8.391s4.636,3.974,9.709,1.987,9.5-2.974,11.7-4.908,5.3-11.65,5.3-11.65,3.093-10.6,6.179-13.246,11.259-39.148,0-35.578-19.869,36.685-19.869,36.685a7.853,7.853,0,0,1-4.855,2.649c-2.868.225-8.61-.444-9.716,1.987S534.3,357.054,537.611,361.908Z" transform="translate(-239.771 -132.315)" fill="#be6f72"/>
    <path id="Path_123" data-name="Path 123" d="M629.81,256.966a19.074,19.074,0,0,1-16.63-4.146l2.391,61.766a16.856,16.856,0,0,0,14.239,4.7Z" transform="translate(-265.74 -114.133)" opacity="0.1"/>
    <path id="Path_124" data-name="Path 124" d="M629.81,254.966a19.074,19.074,0,0,1-16.63-4.146l2.391,61.766a16.856,16.856,0,0,0,14.239,4.7Z" transform="translate(-265.74 -113.458)" fill="#6c63ff"/>
    <path id="Path_125" data-name="Path 125" d="M629.81,254.966a19.074,19.074,0,0,1-16.63-4.146l2.391,61.766a16.856,16.856,0,0,0,14.239,4.7Z" transform="translate(-265.74 -113.458)" opacity="0.1"/>
    <path id="Path_126" data-name="Path 126" d="M640.29,243.431s23.068-7.053,29.081-6.06" transform="translate(-274.895 -108.883)" opacity="0.1"/>
    <path id="Path_127" data-name="Path 127" d="M588.024,239.848s-22.359-5.3-26.094-3.795" transform="translate(-248.433 -108.38)" opacity="0.1"/>
    <path id="Path_128" data-name="Path 128" d="M662.25,246.017s15.425-5.656,21-2.967" transform="translate(-282.311 -110.589)" opacity="0.1"/>
    <path id="Path_129" data-name="Path 129" d="M650.52,456.213a50.7,50.7,0,0,1,7.6-4.722,124.043,124.043,0,0,0,11.259-6.881" transform="translate(-278.35 -178.901)" opacity="0.1"/>
    <path id="Path_130" data-name="Path 130" d="M553.116,360.08s-9.676,7.914-12.584,8.61-4.7,6.868-4.7,6.868" transform="translate(-239.619 -150.355)" opacity="0.1"/>
    <path id="Path_131" data-name="Path 131" d="M694.033,360.139l-3.086,8.411s-4.636,3.974-9.716,1.987-9.491-2.974-11.7-4.908-5.3-11.65-5.3-11.65-3.086-10.6-6.179-13.246-11.259-39.148,0-35.578,19.869,36.684,19.869,36.684a7.853,7.853,0,0,0,4.855,2.649c2.868.225,8.61-.444,9.716,1.987S697.345,355.3,694.033,360.139Z" transform="translate(-278.947 -131.724)" fill="#be6f72"/>
    <path id="Path_132" data-name="Path 132" d="M707.15,364.94s6.325,4.067,6.3,8.928" transform="translate(-297.474 -151.996)" opacity="0.1"/>
    <circle id="Ellipse_10" data-name="Ellipse 10" cx="29.585" cy="29.585" r="29.585" transform="translate(326.425 35.899)" fill="#be6f72"/>
    <path id="Path_133" data-name="Path 133" d="M590.6,114.4c3.59-.563,6.736-2.649,10.166-3.848,7.676-2.7,16.167-.848,23.935,1.583,2.98.934,6.007,1.987,9.133,1.987s6.444-1.278,8.04-3.974c1.47-2.477,1.185-5.7-.053-8.3a23.372,23.372,0,0,0-5.4-6.669c-6.888-6.5-15.431-12.584-24.882-11.921A34.244,34.244,0,0,0,600.6,86.387a120.536,120.536,0,0,0-12.835,6.464c-3.186,1.848-9.087,4.318-10.921,7.7C572.672,108.157,584.11,115.416,590.6,114.4Z" transform="translate(-253.168 -56.853)" fill="#3e373a"/>
    <path id="Path_134" data-name="Path 134" d="M641.874,117.005c-1.6,2.7-4.914,3.974-8.04,3.974s-6.153-1.013-9.14-1.947c-7.769-2.431-16.253-4.285-23.935-1.583-3.424,1.2-6.577,3.311-10.166,3.841-5.232.821-13.656-3.735-14.571-9.53-1.026,6.7,8.742,12.431,14.571,11.517,3.59-.563,6.742-2.649,10.166-3.841,7.683-2.7,16.167-.848,23.935,1.583,2.987.934,6.007,1.987,9.14,1.947s6.444-1.272,8.04-3.974a7.755,7.755,0,0,0,.927-4.841A7.139,7.139,0,0,1,641.874,117.005Z" transform="translate(-253.166 -66.496)" opacity="0.1"/>
    <path id="Path_135" data-name="Path 135" d="M1032.489,661.63s3.927,5.133-1.815,12.888-10.471,14.3-8.563,19.134c0,0,8.663-14.4,15.71-14.6S1040.231,670.286,1032.489,661.63Z" transform="translate(-403.693 -252.19)" fill="#0e75bb"/>
    <path id="Path_136" data-name="Path 136" d="M1032.6,661.63a6.359,6.359,0,0,1,.8,1.609c6.875,8.08,10.544,15.624,3.927,15.809-6.159.179-13.544,11.193-15.312,13.968a6.481,6.481,0,0,0,.205.662s8.663-14.4,15.71-14.6S1040.346,670.286,1032.6,661.63Z" transform="translate(-403.808 -252.19)" opacity="0.1"/>
    <path id="Path_137" data-name="Path 137" d="M1048.537,670.921c0,1.808-.205,3.272-.45,3.272s-.457-1.464-.457-3.272.252-.954.5-.954S1048.537,669.113,1048.537,670.921Z" transform="translate(-412.456 -254.938)" fill="#ffd037"/>
    <path id="Path_138" data-name="Path 138" d="M1051.212,674.12c-1.583.861-2.967,1.384-3.086,1.166s1.066-1.1,2.649-1.987.96-.238,1.08,0S1052.8,673.253,1051.212,674.12Z" transform="translate(-412.621 -255.978)" fill="#ffd037"/>
    <path id="Path_139" data-name="Path 139" d="M1002.168,661.63s-3.927,5.133,1.815,12.888,10.471,14.3,8.557,19.134c0,0-8.656-14.4-15.71-14.6S994.446,670.286,1002.168,661.63Z" transform="translate(-394.129 -252.19)" fill="#0e75bb"/>
    <path id="Path_140" data-name="Path 140" d="M1002.168,661.63a6.36,6.36,0,0,0-.8,1.609c-6.875,8.08-10.544,15.624-3.927,15.809,6.153.179,13.544,11.193,15.312,13.968a5.139,5.139,0,0,1-.212.662s-8.656-14.4-15.71-14.6S994.446,670.286,1002.168,661.63Z" transform="translate(-394.129 -252.19)" opacity="0.1"/>
    <path id="Path_141" data-name="Path 141" d="M995.64,670.921c0,1.808.2,3.272.45,3.272s.457-1.464.457-3.272-.258-.954-.5-.954S995.64,669.113,995.64,670.921Z" transform="translate(-394.899 -254.938)" fill="#ffd037"/>
    <path id="Path_142" data-name="Path 142" d="M991.369,674.12c1.583.861,2.967,1.384,3.086,1.166s-1.066-1.1-2.649-1.987-.96-.238-1.08,0S989.779,673.253,991.369,674.12Z" transform="translate(-393.131 -255.978)" fill="#ffd037"/>
    <ellipse id="Ellipse_11" data-name="Ellipse 11" cx="41.062" cy="6.298" rx="41.062" ry="6.298" transform="translate(577.355 468.152)" fill="#6c63ff" opacity="0.1"/>
    <path id="Path_143" data-name="Path 143" d="M1032.68,698.308l-.2,1.6-.278,2.265-.113.947-.278,2.265-.119.947-.272,2.258-3.146,25.763c-.278,2.3-4.033,4.093-8.57,4.093H1003.38c-4.537,0-8.285-1.795-8.57-4.093l-3.146-25.763-.278-2.258-.113-.947L991,703.122l-.119-.947-.271-2.265-.2-1.6c-.152-1.325,1.874-2.4,4.444-2.4h33.393C1030.806,695.91,1032.839,697,1032.68,698.308Z" transform="translate(-393.129 -263.767)" fill="#65617d"/>
    <path id="Path_144" data-name="Path 144" d="M944.007,658.53l-.271,2.265H902.408l-.278-2.265Z" transform="translate(-304.654 -222.386)" fill="#9d9cb5"/>
    <path id="Path_145" data-name="Path 145" d="M943.815,663.38l-.272,2.265H903l-.278-2.265Z" transform="translate(-304.853 -224.024)" fill="#9d9cb5"/>
    <path id="Path_146" data-name="Path 146" d="M943.627,668.23l-.278,2.265H903.592l-.272-2.265Z" transform="translate(-305.056 -225.662)" fill="#9d9cb5"/>
  </g>
</svg>
